# xmcd
#
# Track frame offsets:
#	150
#	39606
#	50119
#	58379
#	73176
#	122937
#
# Disc length: 2070 seconds
#
# Revision: 1
# Processed by: cddbd v1.5.1PL2 Copyright (c) Steve Scherf et al.
# Submitted via: EasyCDDAExtractor 9.0.0.1
#
DISCID=63081406
DTITLE=Blue Oyster Cult - Irish Centre Leeds 03-06-03 Disc 2
DYEAR=2003
DGENRE=Hard Rock
TTITLE0=Godzilla - Bass Solo >
TTITLE1=Drum Solo >
TTITLE2=Godzilla 
TTITLE3=Buck's Intro To
TTITLE4=(Don't Fear) The Reaper
TTITLE5=Black Blade
EXTD=
EXTT0=
EXTT1=
EXTT2=
EXTT3=
EXTT4=
EXTT5=
PLAYORDER=
